<?xml version="1.0" standalone="no"?>
<!DOCTYPE svg PUBLIC "-//W3C//DTD SVG 20010904//EN"
 "http://www.w3.org/TR/2001/REC-SVG-20010904/DTD/svg10.dtd">
<svg version="1.0" xmlns="http://www.w3.org/2000/svg"
 width="220.000000pt" height="220.000000pt" viewBox="0 0 220.000000 220.000000"
 preserveAspectRatio="xMidYMid meet">
<metadata>
Created by potrace 1.11, written by Peter Selinger 2001-2013
</metadata>
<g transform="translate(0.000000,220.000000) scale(0.100000,-0.100000)"
fill="#000000" stroke="none">
<path d="M1095 2125 c-97 -18 -216 -66 -305 -123 -172 -111 -280 -247 -369
-465 -43 -107 -56 -340 -27 -481 68 -327 332 -601 656 -682 106 -27 335 -27
440 0 342 87 600 368 661 718 23 134 23 168 3 289 -44 266 -182 478 -404 621
-185 119 -428 165 -655 123z m163 -63 c4 -54 20 -55 24 0 4 59 28 63 28 4 0
-61 17 -68 26 -10 l7 47 59 -7 c33 -3 67 -10 76 -15 16 -9 16 -10 -1 -17 -12
-4 -16 -13 -12 -25 4 -11 2 -19 -4 -19 -6 0 -11 -7 -11 -15 0 -8 5 -15 10 -15
6 0 10 -5 10 -11 0 -6 -10 -9 -22 -7 -21 3 -23 8 -21 51 2 26 -2 47 -7 47 -6
0 -10 -10 -10 -22 0 -38 -12 -69 -24 -65 -7 2 -10 22 -7 52 2 33 0 45 -8 41
-6 -4 -11 -25 -11 -47 l0 -39 -95 0 -95 0 0 45 c0 27 -5 45 -11 45 -8 0 -9
-16 -5 -51 8 -63 -13 -65 -28 -3 -5 21 -14 42 -20 46 -6 4 -7 10 -3 14 10 10
77 22 117 20 34 -1 35 -3 38 -44z m-153 -19 c19 -46 19 -67 0 -59 -8 3 -15 2
-15 -2 0 -10 -61 -33 -71 -26 -17 10 -9 34 9 28 9 -3 4 2 -11 11 -22 13 -27
22 -25 43 2 19 9 27 23 27 14 0 19 -6 18 -22 -1 -11 4 -24 12 -27 11 -4 15 3
15 28 0 58 21 58 45 -1z m464 8 c10 -6 12 -19 8 -42 l-7 -34 17 28 c10 15 26
27 35 27 22 0 22 -6 3 -60 -8 -24 -13 -45 -11 -47 6 -7 36 53 36 72 0 18 21
20 38 3 16 -16 15 -28 -1 -28 -7 0 -21 -16 -30 -35 -19 -41 -25 -42 -55 -14
-12 11 -26 17 -31 14 -5 -3 -12 -1 -16 5 -3 5 -17 10 -31 10 -29 0 -32 23 -7
75 17 36 28 41 52 26z m-622 -33 c6 -7 13 -22 15 -33 3 -11 9 -27 13 -37 5
-12 -1 -18 -23 -23 -17 -3 -33 -13 -36 -21 -7 -18 -40 -18 -56 1 -17 21 -32 8
-19 -17 7 -13 7 -24 1 -30 -6 -6 -21 6 -42 37 -25 37 -29 49 -20 60 19 23 43
19 35 -5 -4 -13 -2 -20 7 -20 8 0 13 12 13 33 0 28 3 32 27 30 18 -1 28 4 31
18 6 21 39 26 54 7z m789 -53 c3 -8 -4 -35 -16 -60 -22 -45 -40 -59 -40 -29 0
10 -6 14 -15 10 -24 -9 -18 13 16 55 33 42 46 48 55 24z m79 -55 c4 -6 -3 -26
-15 -45 -12 -19 -17 -35 -12 -35 6 0 13 -8 15 -17 3 -10 5 -4 6 13 1 35 23 59
46 50 19 -7 20 -46 1 -46 -15 0 -29 -37 -17 -45 5 -2 13 7 19 20 13 28 49 34
59 9 8 -22 -15 -43 -27 -24 -7 11 -10 8 -10 -14 l0 -29 24 22 c37 35 54 16 19
-22 l-28 -30 34 23 c26 18 35 20 41 9 5 -7 6 -17 4 -21 -3 -4 2 -8 10 -8 24 0
19 -22 -11 -48 l-28 -23 32 17 c32 18 51 15 38 -5 -3 -6 -25 -21 -47 -32 -40
-21 -42 -21 -55 -3 -7 10 -11 25 -8 33 3 9 3 12 -1 8 -8 -8 -55 43 -49 53 3 4
-7 12 -21 19 -17 7 -24 17 -20 26 3 10 -1 15 -12 15 -20 0 -52 33 -52 55 0 9
-6 12 -15 9 -28 -11 -15 14 22 45 41 34 49 36 58 21z m-1047 -39 l32 -39 -36
-36 c-20 -20 -39 -36 -42 -36 -3 0 -21 14 -39 32 -21 20 -33 27 -33 17 0 -7
14 -26 32 -41 23 -19 30 -30 23 -37 -8 -8 -22 -2 -47 19 -20 17 -39 26 -42 21
-3 -5 10 -19 29 -32 37 -25 41 -46 9 -41 -15 2 -16 1 -5 -6 11 -8 10 -15 -5
-41 -10 -17 -22 -31 -25 -31 -4 0 -9 -10 -11 -22 -2 -14 -11 -24 -23 -26 -29
-3 -85 34 -85 57 0 23 26 34 48 22 16 -9 16 -10 -1 -17 -17 -6 -17 -7 0 -20
22 -16 37 -18 27 -3 -3 6 -1 15 6 19 9 6 4 13 -19 24 -17 9 -31 22 -31 29 1
16 35 57 49 57 6 0 8 7 5 15 -4 8 -1 15 5 15 6 0 11 6 11 13 0 16 64 77 80 77
7 0 10 -7 6 -15 -4 -10 1 -15 15 -15 11 0 19 -6 17 -12 -3 -13 3 -18 24 -18 7
0 -2 15 -20 33 -37 38 -38 45 -14 63 24 19 25 18 60 -25z m270 -127 c-3 -2
-20 -6 -39 -10 -26 -4 -30 -3 -18 5 9 6 20 23 24 38 l7 28 15 -28 c8 -16 13
-31 11 -33z m-85 -43 c-3 -13 2 -21 16 -26 12 -3 21 -11 21 -16 0 -27 -61 -51
-75 -29 -3 5 1 10 9 10 9 0 16 5 16 10 0 15 -27 12 -44 -6 -19 -19 -12 -34 15
-34 10 0 19 -4 19 -9 0 -16 -38 -23 -59 -11 -20 10 -20 10 -1 46 11 19 20 42
20 52 0 15 2 15 10 2 8 -13 13 -12 32 8 27 27 27 27 21 3z m97 -27 c0 -8 -5
-12 -10 -9 -6 4 -8 11 -5 16 9 14 15 11 15 -7z m990 -43 c0 -4 -16 -15 -35
-24 -42 -20 -49 -53 -10 -43 14 3 36 9 50 12 44 11 31 -28 -17 -54 -53 -27
-61 -28 -53 -1 5 14 3 19 -4 15 -8 -6 -41 40 -41 58 0 3 21 17 48 30 44 23 62
25 62 7z m-994 -21 c2 0 13 5 23 11 14 10 29 7 72 -13 31 -14 68 -23 87 -21
28 2 32 0 32 -22 0 -13 5 -27 10 -30 6 -4 10 7 10 24 0 32 13 38 39 22 10 -6
12 -20 8 -45 -5 -29 -2 -36 14 -41 19 -6 19 -7 -5 -26 -13 -10 -27 -19 -31
-19 -4 0 -20 -10 -35 -22 -27 -23 -52 -41 -80 -58 -26 -16 -6 -19 65 -12 62 7
79 14 147 59 l77 52 62 -25 c143 -58 274 -180 339 -315 22 -46 40 -88 40 -95
0 -7 5 -14 11 -16 7 -2 -2 -30 -24 -73 -36 -72 -73 -127 -61 -92 10 27 -16 21
-51 -12 -42 -41 -158 -100 -209 -107 -31 -5 -43 -11 -42 -22 3 -37 -120 -38
-201 -2 -24 10 -44 16 -47 12 -2 -4 -7 -35 -11 -69 -8 -69 -27 -88 -45 -43
-10 23 -9 33 4 52 15 23 15 55 0 79 -4 8 -9 7 -14 -2 -9 -14 -41 3 -84 46 -14
14 -32 25 -39 25 -8 0 -17 6 -20 14 -3 7 -18 16 -34 19 -40 8 -83 44 -83 71 0
12 -6 30 -14 41 -7 11 -16 33 -20 49 -4 17 -14 35 -22 40 -7 6 -17 32 -20 58
-6 39 -3 51 18 80 14 18 30 56 36 83 6 28 14 61 18 74 6 21 5 23 -18 19 -24
-5 -24 -4 -10 24 9 19 32 38 67 54 60 27 77 30 74 12 -3 -24 1 -38 10 -38 5 0
9 6 8 13 -1 36 5 47 30 53 19 5 30 2 39 -11 12 -17 15 -16 48 11 43 36 44 48
4 68 -32 17 -47 10 -48 -21 0 -7 -9 -13 -20 -13 -11 0 -20 5 -20 10 0 6 -9 10
-20 10 -11 0 -20 -4 -20 -10 0 -5 -8 -7 -17 -4 -10 3 -24 8 -32 10 -24 8 26
53 52 47 20 -4 21 -3 4 7 -15 10 -23 8 -42 -10 -22 -21 -25 -21 -40 -6 -9 9
-21 16 -26 16 -19 0 -8 21 16 30 14 5 26 15 26 22 1 7 3 5 6 -4 2 -10 6 -18 9
-18z m-556 -49 c0 -4 21 -16 46 -26 56 -21 47 -44 -10 -25 -20 6 -41 8 -48 4
-7 -4 7 -13 35 -21 46 -13 64 -33 31 -33 -14 0 -14 -3 -4 -15 10 -13 9 -15
-11 -16 -17 -1 -19 -3 -6 -6 19 -5 24 -33 6 -33 -8 0 -8 -4 1 -15 14 -17 6
-33 -24 -45 l-21 -9 23 0 c15 -1 22 -7 22 -21 0 -21 -10 -26 -26 -11 -5 5 -27
11 -48 13 -42 3 -64 28 -25 28 l23 0 -22 16 c-18 12 -20 19 -12 35 6 10 21 20
33 20 l22 2 -22 4 c-13 2 -23 11 -23 19 0 12 9 14 38 9 37 -5 37 -5 7 6 -38
15 -39 15 -29 31 5 7 9 22 9 33 1 30 15 65 26 65 5 0 9 -4 9 -9z m1602 -46 c5
-59 3 -69 -22 -76 -23 -6 -22 -6 10 -10 26 -3 36 -9 38 -25 4 -25 -40 -47 -84
-42 -38 4 -45 40 -12 56 l23 11 -24 -2 c-40 -3 -35 20 6 28 45 8 55 13 48 25
-3 5 -23 3 -44 -5 -22 -7 -42 -11 -45 -8 -13 14 -4 23 34 33 22 6 40 15 40 20
0 16 30 11 32 -5z m33 -164 c3 -5 0 -13 -6 -17 -8 -4 -7 -9 2 -15 21 -13 6
-20 -55 -26 -57 -6 -74 5 -38 26 16 10 16 10 0 11 -10 0 -18 4 -18 9 0 9 15
12 92 19 9 1 19 -2 23 -7z m-85 -442 c0 -5 5 -7 10 -4 6 3 10 1 10 -5 0 -17
-31 -24 -41 -9 -13 20 -11 29 6 29 8 0 15 -5 15 -11z m-37 -46 c-5 -13 -2 -15
15 -11 25 7 30 -9 6 -19 -20 -7 -38 11 -31 31 4 9 9 16 11 16 3 0 3 -7 -1 -17z
m-1448 -13 c-5 -15 -2 -20 12 -20 13 0 9 -6 -15 -21 -33 -22 -56 -19 -34 3 18
18 14 27 -10 22 -16 -4 -12 1 12 15 44 25 43 25 35 1z m1450 -58 c-9 -10 -44
20 -39 33 5 12 10 10 24 -8 10 -12 17 -23 15 -25z m-165 34 c0 -2 -8 -10 -17
-17 -16 -13 -17 -12 -4 4 13 16 21 21 21 13z m-1236 -35 c11 -17 -6 -41 -31
-47 -33 -9 -48 14 -26 38 17 19 48 24 57 9z m1381 -21 c0 -8 -10 -16 -22 -18
-18 -3 -23 2 -23 18 0 16 5 21 23 18 12 -2 22 -10 22 -18z m-79 -5 c-3 -8 0
-15 7 -15 14 0 39 -35 30 -43 -3 -3 -18 4 -34 15 -23 17 -26 25 -18 40 12 22
24 24 15 3z m-116 2 c0 -2 -12 -14 -27 -28 l-28 -24 24 28 c23 25 31 32 31 24z
m-1150 -26 c0 -12 -40 -61 -50 -61 -5 0 -7 6 -4 14 3 9 -2 16 -13 18 -15 3
-13 7 12 21 33 18 55 22 55 8z m40 -53 c-1 -14 -34 -58 -44 -58 -3 0 -6 7 -6
15 0 8 -6 15 -12 15 -16 1 33 39 50 40 6 0 12 -6 12 -12z m1210 -33 c0 -4 -7
-4 -16 -1 -14 5 -15 4 -4 -9 7 -8 8 -15 2 -15 -5 0 -15 7 -22 15 -9 10 -9 15
-1 15 6 0 11 7 11 16 0 14 2 14 15 0 8 -8 15 -18 15 -21z m-55 -21 c22 -15 26
-42 4 -29 -5 4 -9 -1 -9 -9 0 -24 -15 -19 -28 9 -22 48 -11 58 33 29z m-235
-9 c0 -6 -56 -35 -67 -35 -4 1 8 9 27 20 39 22 40 22 40 15z m-820 -41 c0 -8
5 -12 10 -9 16 10 11 -8 -10 -35 l-20 -25 0 29 c0 25 -2 27 -17 15 -15 -12
-16 -12 -8 1 23 41 45 53 45 24z m56 -56 c-7 -36 -17 -49 -23 -30 -3 6 -12 12
-21 12 -12 0 -10 5 8 25 32 34 44 32 36 -7z m907 2 c5 -18 3 -18 -19 -3 -29
18 -31 33 -5 26 11 -3 21 -13 24 -23z m-48 -38 c-6 -6 -35 18 -35 30 0 5 5 6
10 3 6 -3 10 0 11 7 0 7 5 2 10 -11 5 -13 7 -26 4 -29z m-795 28 c0 -5 -7 -7
-16 -3 -14 5 -14 3 -3 -15 10 -16 11 -24 2 -33 -13 -13 -43 -5 -43 10 0 6 6 8
14 5 10 -4 12 2 9 20 -4 21 -1 26 16 26 11 0 21 -4 21 -10z m706 -68 c-3 -2
-13 1 -22 9 -15 12 -16 11 -10 -9 11 -34 -3 -26 -19 10 -15 37 -10 55 11 37
11 -9 14 -8 15 7 0 13 6 8 15 -15 8 -18 13 -36 10 -39z m49 47 c7 -22 -11 -43
-28 -32 -5 3 -3 9 4 14 11 6 10 9 -4 15 -19 7 -13 24 8 24 7 0 17 -10 20 -21z
m-713 -33 c-2 -20 -8 -36 -13 -36 -5 0 -9 5 -9 10 0 6 -7 10 -16 10 -13 0 -12
5 6 30 27 37 37 32 32 -14z m174 -8 c-4 -22 -9 -45 -12 -50 -7 -11 -34 -10
-34 2 0 6 5 10 10 10 6 0 10 11 10 24 0 32 10 56 22 56 7 0 8 -16 4 -42z m325
-5 c13 -32 16 -50 9 -57 -7 -7 -10 -6 -10 2 0 16 -37 15 -43 0 -3 -7 -6 10 -6
38 -1 80 20 87 50 17z m-244 22 c8 -22 -6 -33 -18 -15 -8 13 -10 13 -19 0 -20
-31 -8 -69 16 -49 7 6 14 6 18 1 8 -14 -21 -35 -39 -28 -25 9 -34 48 -19 79
16 30 51 37 61 12z m67 9 c23 -9 20 -26 -4 -19 -26 8 -26 -11 1 -25 30 -17 22
-54 -13 -58 -21 -3 -28 1 -28 14 0 13 3 14 14 5 11 -9 16 -9 21 -1 4 7 -2 18
-14 26 -24 17 -27 34 -9 52 14 14 12 14 32 6z m87 -4 c13 -7 19 -21 19 -43 0
-39 -15 -57 -47 -57 -21 0 -23 5 -23 48 0 63 10 73 51 52z"/>
<path d="M1204 2079 c-3 -6 0 -15 7 -20 12 -8 12 -10 0 -18 -7 -5 -10 -14 -7
-20 14 -23 26 -10 26 29 0 39 -12 52 -26 29z"/>
<path d="M1537 2001 c-4 -17 -3 -21 5 -13 5 5 8 16 6 23 -3 8 -7 3 -11 -10z"/>
<path d="M567 1703 c-14 -13 -7 -24 12 -18 14 4 20 0 24 -17 5 -18 9 -20 18
-11 10 10 7 17 -12 32 -26 22 -32 24 -42 14z"/>
<path d="M1071 981 c-22 -14 -20 -91 2 -105 16 -9 22 -7 34 12 27 40 61 24 44
-21 -9 -22 -7 -25 20 -31 28 -5 30 -9 24 -34 -7 -34 7 -47 50 -47 25 0 30 4
33 28 2 15 -1 27 -7 27 -6 0 -8 7 -5 15 4 8 -1 17 -10 21 -9 3 -15 13 -14 22
2 11 -8 18 -30 23 -42 9 -48 15 -29 33 8 8 17 12 21 9 3 -4 6 -1 6 5 0 7 -4
12 -10 12 -5 0 -10 7 -10 15 0 11 -6 12 -22 6 -26 -9 -51 -4 -42 10 7 12 -37
12 -55 0z"/>
<path d="M463 1363 c9 -2 23 -2 30 0 6 3 -1 5 -18 5 -16 0 -22 -2 -12 -5z"/>
<path d="M2036 1392 c-3 -5 8 -6 25 -4 16 2 29 6 29 8 0 8 -49 4 -54 -4z"/>
<path d="M559 774 c-12 -14 -11 -16 5 -13 11 2 21 10 24 17 5 17 -13 15 -29
-4z"/>
<path d="M1955 770 c3 -5 8 -10 11 -10 2 0 4 5 4 10 0 6 -5 10 -11 10 -5 0 -7
-4 -4 -10z"/>
<path d="M640 669 c0 -5 5 -7 10 -4 6 3 10 8 10 11 0 2 -4 4 -10 4 -5 0 -10
-5 -10 -11z"/>
<path d="M810 529 c0 -5 5 -7 10 -4 6 3 10 8 10 11 0 2 -4 4 -10 4 -5 0 -10
-5 -10 -11z"/>
<path d="M1400 445 c0 -8 5 -15 10 -15 6 0 10 7 10 15 0 8 -4 15 -10 15 -5 0
-10 -7 -10 -15z"/>
<path d="M1328 465 c-2 -3 -3 -18 0 -35 5 -34 22 -31 22 5 0 23 -12 39 -22 30z"/>
</g>
</svg>
