<?xml version="1.0" encoding="UTF-8" standalone="no"?>
<!DOCTYPE svg PUBLIC "-//W3C//DTD SVG 1.1//EN" "http://www.w3.org/Graphics/SVG/1.1/DTD/svg11.dtd">
<svg xmlns="http://www.w3.org/2000/svg" xmlns:xl="http://www.w3.org/1999/xlink" version="1.1" viewBox="151 123 860 718" width="860pt" height="718pt" xmlns:dc="http://purl.org/dc/elements/1.1/"><metadata> Produced by OmniGraffle 6.6.2 <dc:date>2018-12-10 18:44:48 +0000</dc:date></metadata><defs/><g stroke="none" stroke-opacity="1" stroke-dasharray="none" fill="none" fill-opacity="1"><title>Canvas 1</title><g><title>Layer 1</title><path d="M 255.90551 127.559054 L 906.2992 127.559054 C 961.5277 127.559054 1006.2992 172.33058 1006.2992 227.55905 L 1006.2992 736.22047 C 1006.2992 791.44894 961.5277 836.22047 906.2992 836.22047 L 255.90551 836.22047 C 200.67704 836.22047 155.90551 791.44894 155.90551 736.22047 L 155.90551 227.55905 C 155.90551 172.33058 200.67704 127.559054 255.90551 127.559054 Z" stroke="black" stroke-linecap="round" stroke-linejoin="round" stroke-width="6"/><path d="M 235.27559 660.47244 L 470.09764 660.47244 L 498.89763 558.4252 L 648.56693 504.16517 L 718.97952 500.83948 L 718.97952 607.26145 L 924.0945 421.023 L 718.97952 238.11023 L 718.97952 344.5322 L 541.41732 351.18358 L 396.8504 399.68504 L 296.50394 487.53673 Z" fill="#a5a5a5"/><path d="M 235.27559 660.47244 L 470.09764 660.47244 L 498.89763 558.4252 L 648.56693 504.16517 L 718.97952 500.83948 L 718.97952 607.26145 L 924.0945 421.023 L 718.97952 238.11023 L 718.97952 344.5322 L 541.41732 351.18358 L 396.8504 399.68504 L 296.50394 487.53673 Z" stroke="black" stroke-linecap="round" stroke-linejoin="round" stroke-width="6"/></g></g></svg>
